<svg width="24" height="25" viewBox="0 0 24 25" fill="none" xmlns="http://www.w3.org/2000/svg">
<path d="M22 10.5601V15.5601C22 20.5601 20 22.5601 15 22.5601H9C4 22.5601 2 20.5601 2 15.5601V9.56006C2 4.56006 4 2.56006 9 2.56006H14M22 10.5601H18C15 10.5601 14 9.56006 14 6.56006V2.56006M22 10.5601L14 2.56006M6.62 16.2901C6.29 15.2601 6.68 13.9901 7.75 13.6401C8.32 13.4601 9.02 13.6101 9.41 14.1601C9.78 13.5901 10.51 13.4601 11.07 13.6401C12.15 13.9901 12.53 15.2601 12.21 16.2901C11.7 17.9201 9.91 18.7701 9.41 18.7701C8.92 18.7601 7.15 17.9301 6.62 16.2901Z" stroke="#005666" stroke-width="1.5" stroke-linecap="round" stroke-linejoin="round"/>
</svg>
