<svg width="24" height="25" viewBox="0 0 24 25" fill="none" xmlns="http://www.w3.org/2000/svg">
<path d="M12.1596 12.1801C12.1296 12.1801 12.1096 12.1801 12.0796 12.1801C12.0296 12.1701 11.9596 12.1701 11.8996 12.1801C8.99961 12.0901 6.80961 9.81006 6.80961 7.00006C6.80961 4.14006 9.13961 1.81006 11.9996 1.81006C14.8596 1.81006 17.1896 4.14006 17.1896 7.00006C17.1796 9.81006 14.9796 12.0901 12.1896 12.1801C12.1796 12.1801 12.1696 12.1801 12.1596 12.1801ZM11.9996 3.31006C9.96961 3.31006 8.30961 4.97006 8.30961 7.00006C8.30961 9.00006 9.86961 10.6101 11.8596 10.6801C11.9096 10.6701 12.0496 10.6701 12.1796 10.6801C14.1396 10.5901 15.6796 8.98006 15.6896 7.00006C15.6896 4.97006 14.0296 3.31006 11.9996 3.31006Z" fill="#005666"/>
<path d="M12.1696 23.1101C10.2096 23.1101 8.23961 22.6101 6.74961 21.6101C5.35961 20.6901 4.59961 19.4301 4.59961 18.0601C4.59961 16.6901 5.35961 15.4201 6.74961 14.4901C9.74961 12.5001 14.6096 12.5001 17.5896 14.4901C18.9696 15.4101 19.7396 16.6701 19.7396 18.0401C19.7396 19.4101 18.9796 20.6801 17.5896 21.6101C16.0896 22.6101 14.1296 23.1101 12.1696 23.1101ZM7.57961 15.7501C6.61961 16.3901 6.09961 17.2101 6.09961 18.0701C6.09961 18.9201 6.62961 19.7401 7.57961 20.3701C10.0696 22.0401 14.2696 22.0401 16.7596 20.3701C17.7196 19.7301 18.2396 18.9101 18.2396 18.0501C18.2396 17.2001 17.7096 16.3801 16.7596 15.7501C14.2696 14.0901 10.0696 14.0901 7.57961 15.7501Z" fill="#005666"/>
</svg>
